<svg xmlns="http://www.w3.org/2000/svg" xmlns:xlink="http://www.w3.org/1999/xlink" id="Layer_1" x="0px" y="0px" viewBox="0 0 50 50" style="enable-background:new 0 0 50 50;" xml:space="preserve">
<style type="text/css">
	.st0{fill:#F28E14;}
</style>
<g>
	<path class="st0" d="M38.5,50c-3.4,0-6.2-2.8-6.2-6.2V20.3c-3.3-2.1-5.4-5.8-5.4-9.8c0-4.4,2.4-8.3,6.3-10.3   c0.6-0.3,1.2-0.3,1.7,0.1c0.5,0.3,0.9,0.9,0.9,1.5v7.7l2.7,1.1l2.7-1.1V1.8c0-0.6,0.3-1.2,0.9-1.5c0.5-0.3,1.2-0.3,1.7-0.1   c3.9,2,6.3,6,6.3,10.3c0,4-2,7.6-5.4,9.8v23.4C44.7,47.2,41.9,50,38.5,50L38.5,50z M32.2,5.5c-1.1,1.4-1.8,3.2-1.8,5   c0,3,1.7,5.8,4.4,7.2c0.6,0.3,1,0.9,1,1.6v24.5c0,1.5,1.2,2.7,2.7,2.7c1.5,0,2.7-1.2,2.7-2.7V19.3c0-0.7,0.4-1.3,1-1.6   c2.7-1.4,4.4-4.1,4.4-7.1c0-1.9-0.6-3.6-1.8-5v5.2c0,0.7-0.4,1.4-1.1,1.7l-4.5,1.8c-0.4,0.2-0.9,0.2-1.3,0l-4.5-1.8   c-0.7-0.3-1.1-0.9-1.1-1.7V5.5z M32.2,5.5"></path>
	<path class="st0" d="M27,50h-3.8c-1.9,0-3.4-1.4-3.6-3.3l-0.2-2.9c-1.2-0.4-2.4-0.9-3.5-1.5l-2.2,1.9c-1.4,1.2-3.5,1.1-4.8-0.2   l-2.7-2.7c-1.3-1.3-1.4-3.4-0.2-4.8l1.9-2.2c-0.6-1.1-1.1-2.3-1.5-3.5l-2.9-0.2c-1.8-0.1-3.3-1.7-3.3-3.6v-3.8   c0-1.9,1.4-3.4,3.3-3.6l2.9-0.2c0.4-1.2,0.9-2.4,1.5-3.5l-1.9-2.2C4.7,12.1,4.8,10,6.1,8.7L8.8,6c1.3-1.3,3.4-1.4,4.8-0.2l2.2,1.9   c1.1-0.6,2.3-1.1,3.5-1.5l0.2-2.9C19.8,1.4,21.3,0,23.2,0h1.9c1,0,1.8,0.8,1.8,1.8s-0.8,1.8-1.8,1.8h-1.9l-0.3,4.2   c-0.1,0.8-0.6,1.4-1.4,1.6c-1.7,0.4-3.4,1.1-4.9,2c-0.7,0.4-1.5,0.4-2.1-0.2l-3.2-2.7l-2.7,2.7l2.7,3.2c0.5,0.6,0.6,1.4,0.2,2.1   c-0.9,1.5-1.6,3.2-2,4.9c-0.2,0.8-0.8,1.3-1.6,1.4l-4.2,0.3v3.8l4.2,0.3c0.8,0.1,1.4,0.6,1.6,1.4c0.4,1.7,1.1,3.4,2,4.9   c0.4,0.7,0.3,1.5-0.2,2.1l-2.7,3.2l2.7,2.7l3.2-2.7c0.6-0.5,1.5-0.6,2.1-0.2c1.5,0.9,3.2,1.6,4.9,2c0.8,0.2,1.3,0.8,1.4,1.6   l0.3,4.2H27c0.1-1,0.9-1.7,1.9-1.6c1,0.1,1.7,0.9,1.6,1.9C30.4,48.5,28.9,50,27,50L27,50z M27,50"></path>
	<path class="st0" d="M12.6,25c0-6.1,4.4-11.3,10.4-12.3c1-0.2,1.9,0.5,2.1,1.5c0.2,1-0.5,1.9-1.5,2.1c-4.3,0.7-7.4,4.4-7.4,8.8   c0,6.2,6.1,10.5,11.9,8.4c0.9-0.3,1.9,0.2,2.3,1.1c0.3,0.9-0.2,1.9-1.1,2.3C21.1,39.7,12.6,33.6,12.6,25L12.6,25z M12.6,25"></path>
</g>
</svg>